<svg id="Layer_1" data-name="Layer 1" xmlns="http://www.w3.org/2000/svg" viewBox="0 0 100 100"><defs><style>.cls-1{fill:#3191cf;}</style></defs><title>icon</title><g id="surface1"><path class="cls-1" d="M6.67,95h80a6.67,6.67,0,0,0,6.66-6.67v-5a1.66,1.66,0,0,0-1.66-1.66H88.33v-25H85v25H81.67V58.33H78.33V81.67H56.86a4.65,4.65,0,0,0-4.18,2.58,1.36,1.36,0,0,1-1.21.75H41.86a1.33,1.33,0,0,1-1.2-.75,4.67,4.67,0,0,0-4.19-2.58H15V33.33H46.67V30H13.33a1.66,1.66,0,0,0-1.66,1.67v50H8.33v-50a5,5,0,0,1,5-5H46.67V23.33H13.33A8.35,8.35,0,0,0,5,31.67v50H1.67A1.66,1.66,0,0,0,0,83.33v5A6.67,6.67,0,0,0,6.67,95ZM3.33,85H36.47a1.36,1.36,0,0,1,1.21.74,4.64,4.64,0,0,0,4.18,2.59h9.61a4.66,4.66,0,0,0,4.19-2.59,1.34,1.34,0,0,1,1.2-.74H90v3.33a3.34,3.34,0,0,1-3.33,3.34h-80a3.35,3.35,0,0,1-3.34-3.34Z"/><path class="cls-1" d="M18.33,36.67h3.34V40H18.33Z"/><path class="cls-1" d="M25,36.67h3.33V40H25Z"/><path class="cls-1" d="M31.67,36.67H35V40H31.67Z"/><path class="cls-1" d="M50,46.67V43.33H20A1.67,1.67,0,0,0,18.33,45V55A1.67,1.67,0,0,0,20,56.67H60V53.33H21.67V46.67Z"/><path class="cls-1" d="M18.33,75H30v3.33H18.33Z"/><path class="cls-1" d="M33.33,75H45v3.33H33.33Z"/><path class="cls-1" d="M48.33,75H60v3.33H48.33Z"/><path class="cls-1" d="M63.33,75H75v3.33H63.33Z"/><path class="cls-1" d="M45,61.67A1.67,1.67,0,0,0,43.33,60H35a1.67,1.67,0,0,0-1.67,1.67V70A1.67,1.67,0,0,0,35,71.67h8.33A1.67,1.67,0,0,0,45,70Zm-3.33,6.66h-5v-5h5Z"/><path class="cls-1" d="M30,61.67A1.67,1.67,0,0,0,28.33,60H20a1.67,1.67,0,0,0-1.67,1.67V70A1.67,1.67,0,0,0,20,71.67h8.33A1.67,1.67,0,0,0,30,70Zm-3.33,6.66h-5v-5h5Z"/><path class="cls-1" d="M73.33,71.67A1.67,1.67,0,0,0,75,70V61.67A1.67,1.67,0,0,0,73.33,60H65a1.67,1.67,0,0,0-1.67,1.67V70A1.67,1.67,0,0,0,65,71.67Zm-6.66-8.34h5v5h-5Z"/><path class="cls-1" d="M60,61.67A1.67,1.67,0,0,0,58.33,60H50a1.67,1.67,0,0,0-1.67,1.67V70A1.67,1.67,0,0,0,50,71.67h8.33A1.67,1.67,0,0,0,60,70Zm-3.33,6.66h-5v-5h5Z"/><path class="cls-1" d="M75,5a25,25,0,1,0,25,25A25,25,0,0,0,75,5Zm0,46.67A21.67,21.67,0,1,1,96.67,30,21.67,21.67,0,0,1,75,51.67Z"/><path class="cls-1" d="M75,18.33a11.58,11.58,0,0,1,2.2.24l-2.46,1.55,1.77,2.82,5.63-3.54a1.71,1.71,0,0,0,.75-1.1A1.72,1.72,0,0,0,82.6,17l-4.1-5.62-2.7,2,1.34,1.82A15,15,0,0,0,62.72,38.61l2.73-1.91A11.67,11.67,0,0,1,75,18.33Z"/><path class="cls-1" d="M84.49,23.11A11.62,11.62,0,0,1,72.73,41.24l2.46-1.55-1.77-2.82-5.63,3.54a1.67,1.67,0,0,0-.46,2.39l4.1,5.63,2.7-2-1.34-1.82A15,15,0,0,0,87.21,21.19Z"/></g></svg>