<svg id="Layer_1" data-name="Layer 1" xmlns="http://www.w3.org/2000/svg" viewBox="0 0 100 100"><defs><style>.cls-1{fill:#3191cf;}</style></defs><title>icon</title><path class="cls-1" d="M22.76,14.52a8.07,8.07,0,1,0-8.07,8.06A8.08,8.08,0,0,0,22.76,14.52Zm-8.07,4.83a4.84,4.84,0,1,1,4.84-4.83A4.84,4.84,0,0,1,14.69,19.35Z"/><path class="cls-1" d="M79.29,16.21l2.28,2.28a8.08,8.08,0,0,1,11.41,0l2.28-2.28a11.29,11.29,0,0,0-16,0Z"/><path class="cls-1" d="M74.73,11.65,77,13.93a14.53,14.53,0,0,1,20.53,0l2.28-2.28a17.76,17.76,0,0,0-25.09,0Z"/><path class="cls-1" d="M19.53,62.9h9.68V53.23H19.53Zm3.23-6.45H26v3.23H22.76Z"/><path class="cls-1" d="M19.53,75.81h9.68V66.13H19.53Zm3.23-6.46H26v3.23H22.76Z"/><path class="cls-1" d="M32.44,62.9h9.67V53.23H32.44Zm3.22-6.45h3.23v3.23H35.66Z"/><path class="cls-1" d="M58.24,62.9h9.68V53.23H58.24Zm3.23-6.45h3.22v3.23H61.47Z"/><path class="cls-1" d="M80.82,53.23H71.15V62.9h9.67ZM77.6,59.68H74.37V56.45H77.6Z"/><path class="cls-1" d="M85.66,40.32H51.79V37.1h37.1V28.74a4.84,4.84,0,1,0-3.23,0v5.13H51.79V29h12.9V0h-29V29H48.57v4.84H16.31V29h2.74l.77-2.13,2.06,1L28,21.7l-1-2.05,2.13-.78V10.16l-2.13-.77,1-2.06L21.88,1.17l-2.06,1L19.05,0H10.34L9.56,2.13l-2.05-1L1.35,7.33l1,2.06-2.13.77v8.71l2.13.78-1,2.05,6.16,6.16,2.05-1L10.34,29h2.74V37.1H48.57v3.22H14.69a8.08,8.08,0,0,0-8.06,8.07V80.65a8.07,8.07,0,0,0,8.06,8.06h24.2a11.42,11.42,0,0,0,2.22,6.69l3.42,4.6h24.2l3.38-4.52a11.31,11.31,0,0,0,2.26-6.77H85.66a8.08,8.08,0,0,0,8.07-8.06V48.39A8.08,8.08,0,0,0,85.66,40.32Zm1.61-17.74a1.62,1.62,0,1,1-1.61,1.61A1.62,1.62,0,0,1,87.27,22.58ZM48.57,3.23h3.22V6.45H48.57Zm-9.68,0h6.45V9.68H55V3.23h6.45V25.81H38.89ZM12.12,24.48l-.33-.72-1.67-.68L8.19,24l-3-3,.9-1.94-.72-1.74-2-.73V12.42l1.33-.48.72-.34L6.13,10,5.23,8l3-3,1.94.9,1.74-.71.73-2h4.19l.48,1.32.33.72L19.26,6l1.94-.9,3,3L23.26,10,24,11.69l2,.73v4.19l-1.32.49-.72.34-.69,1.64L24.16,21l-3,3-1.93-.9-1.75.72-.73,2H12.6Zm59,64.23a8.14,8.14,0,0,1-1.62,4.84l-2.42,3.22h-21L43.7,93.48a8.16,8.16,0,0,1-1.59-4.81V72.51a3.23,3.23,0,0,1,3.23,3.23V87h3.23v-29a1.61,1.61,0,0,1,3.22,0V79H55V71a1.61,1.61,0,1,1,3.22,0V79h3.23V71a1.61,1.61,0,1,1,3.22,0V79h3.23V74.19a1.62,1.62,0,0,1,3.23,0ZM69.53,69.35a4.94,4.94,0,0,0-1.8.36,4.82,4.82,0,0,0-4.65-3.58,4.75,4.75,0,0,0-3.22,1.26,4.79,4.79,0,0,0-3.23-1.26,4.75,4.75,0,0,0-1.61.3V58.06a4.84,4.84,0,0,0-9.68,0V70.19a6.34,6.34,0,0,0-3.23-.9,3.22,3.22,0,0,0-3.22,3.22V79H16.31V50H84.05V79H74.37V74.19A4.85,4.85,0,0,0,69.53,69.35Zm21,11.3a4.84,4.84,0,0,1-4.84,4.83H74.37V82.26h9.68A3.23,3.23,0,0,0,87.27,79V50a3.23,3.23,0,0,0-3.22-3.23H16.31A3.23,3.23,0,0,0,13.08,50V79a3.23,3.23,0,0,0,3.23,3.23H38.89v3.22H14.69a4.84,4.84,0,0,1-4.83-4.83V48.39a4.84,4.84,0,0,1,4.83-4.84h71a4.84,4.84,0,0,1,4.84,4.84Z"/></svg>